<svg xmlns="http://www.w3.org/2000/svg" viewBox="0 0 563.342 217.264">
  <defs>
    <marker id="d" orient="auto" overflow="visible">
      <path d="M-10 0l-4 4L0 0l-14-4z" fill="#00f" fill-rule="evenodd" stroke="#00f" stroke-width="1.067"/>
    </marker>
    <marker id="c" orient="auto" overflow="visible">
      <path d="M10 0l4-4L0 0l14 4z" fill="#00f" fill-rule="evenodd" stroke="#00f" stroke-width="1.067"/>
    </marker>
    <marker id="b" orient="auto" overflow="visible">
      <path d="M-10 0l-4 4L0 0l-14-4z" fill="#00f" fill-rule="evenodd" stroke="#00f" stroke-width="1.067"/>
    </marker>
    <marker id="a" orient="auto" overflow="visible">
      <path d="M10 0l4-4L0 0l14 4z" fill="#00f" fill-rule="evenodd" stroke="#00f" stroke-width="1.067"/>
    </marker>
  </defs>
  <path d="M53.342 40.884h360.7v91.4h-360.7z" fill="none"/>
  <path d="M62.842 45.514h-3.9v9.62h-1.4v-9.62h-3.9v-1.3h9.2zm6 9.62h-1.4v-.87q-.2.12-.5.35-.3.22-.6.35-.3.17-.8.28-.4.13-1 .13-1.1 0-1.9-.74-.8-.74-.8-1.87 0-.93.4-1.5.4-.58 1.2-.9.7-.34 1.8-.46 1-.12 2.2-.18v-.22q0-.47-.1-.78-.2-.3-.5-.48-.3-.17-.7-.23h-.9q-.5 0-1.2.13-.6.14-1.4.4v-1.4q.4-.1 1.1-.23.8-.13 1.5-.13.9 0 1.5.15.7.14 1.2.48.4.34.7.87.2.54.2 1.33v5.55zm-1.4-2.02v-2.28q-.6 0-1.5.12-.8.1-1.3.2-.6.18-1 .54-.3.35-.3.97 0 .7.4 1.06.4.34 1.3.34.7 0 1.3-.27.6-.3 1.1-.7zm10.7 2.02h-1.4v-.86q-.6.5-1.2.8-.7.3-1.4.3-1.5 0-2.3-1.14-.9-1.13-.9-3.13 0-1.04.3-1.85.3-.82.8-1.4.5-.54 1.2-.84.6-.3 1.3-.3.7 0 1.2.15.5.13 1 .42v-3.55h1.4zm-1.4-2.02v-4.7q-.5-.24-1-.33-.4-.1-.9-.1-1.2 0-1.8.8-.7.8-.7 2.3 0 1.45.5 2.2.5.77 1.6.77.6 0 1.2-.26t1.1-.68zm11.2-6.16l-4.8 11.2h-1.5l1.6-3.42-3.3-7.78h1.5l2.5 6.06 2.5-6.06zm14.8-1.37h-1.5v-1.43h1.5zm-.1 9.75q0 1.43-.7 2.16-.7.74-1.9.74-.3 0-.8-.1l-.8-.15v-1.3q.3.1.6.17.3.1.7.1.5 0 .8-.14.4-.15.5-.44.2-.3.2-.7.1-.42.1-1v-6.6h-1.7v-1.16h3v8.38zm9.6-4.15h-6q0 .76.2 1.32t.6.92q.4.34.9.5.5.2 1.2.2.8 0 1.6-.34.9-.34 1.3-.66v1.5q-.7.3-1.4.5t-1.5.2q-2.1 0-3.2-1.1-1.1-1.12-1.1-3.14 0-2 1.1-3.2 1.1-1.17 2.8-1.17 1.7 0 2.6.96.9.96.9 2.74v.75zm-1.4-1.05q0-1.1-.5-1.68-.5-.6-1.6-.6t-1.8.66q-.7.65-.7 1.62zm20.9.9q0 2-1 3.17-1 1.16-2.7 1.16-1.8 0-2.8-1.16-1-1.16-1-3.16t1-3.14q1-1.17 2.8-1.17 1.7 0 2.7 1.16 1 1.15 1 3.15zm-1.4 0q0-1.58-.6-2.35t-1.7-.77q-1.1 0-1.8.77-.6.77-.6 2.36 0 1.55.6 2.35.7.8 1.8.8t1.7-.8q.6-.8.6-2.34zm10.8-.05q0 1.02-.3 1.84-.3.8-.8 1.37-.5.58-1.1.87-.6.3-1.4.3-.7 0-1.2-.18-.5-.16-1-.44l-.1.38h-1.3v-11.39h1.4v4.07q.5-.47 1.2-.77.6-.3 1.5-.3 1.4 0 2.2 1.1.9 1.12.9 3.15zm-1.4 0q0-1.46-.5-2.22-.5-.76-1.6-.76-.6 0-1.2.27-.6.25-1.1.66v4.7q.5.25 1 .36.4.1.9.1 1.2 0 1.8-.75.7-.74.7-2.35zm9.4 1.79q0 1.12-1 1.84-.9.72-2.5.72-.9 0-1.7-.22-.7-.22-1.2-.47v-1.54h.1q.6.5 1.4.8.8.27 1.5.27.9 0 1.5-.3.5-.28.5-.9 0-.5-.3-.75t-1.1-.42q-.3-.1-.7-.15-.5-.1-.9-.2-1.1-.27-1.5-.82-.5-.56-.5-1.36 0-.5.2-.95.2-.45.7-.8.4-.35 1-.54.6-.2 1.4-.2.8 0 1.5.17.8.18 1.3.44v1.47h-.1q-.5-.38-1.3-.64-.8-.28-1.5-.28t-1.3.3q-.5.28-.5.85 0 .5.3.77.3.25 1 .4.4.1.9.2l.8.15q.9.22 1.5.76.5.55.5 1.44zm8.3 2.36h-1.4v-.87q-.1.12-.5.35-.3.22-.6.35-.3.17-.7.28-.5.13-1.1.13-1.1 0-1.9-.74-.7-.74-.7-1.87 0-.93.4-1.5.4-.58 1.1-.9.7-.34 1.8-.46 1-.12 2.2-.18v-.22q0-.47-.1-.78-.2-.3-.5-.48-.3-.17-.7-.23h-.9q-.5 0-1.2.13-.6.14-1.3.4h-.1v-1.4q.4-.1 1.2-.23.7-.13 1.5-.13t1.5.15q.6.14 1.1.48.4.34.7.87.2.54.2 1.33v5.55zm-1.4-2.02v-2.28q-.6 0-1.4.12-.9.1-1.4.2-.6.18-1 .54-.3.35-.3.97 0 .7.4 1.06.4.34 1.3.34.7 0 1.3-.27.6-.3 1.1-.7zm10.9 2.02h-1.4v-5.71q-.1-.5-.3-.8-.1-.3-.5-.44-.3-.16-.9-.16-.6 0-1.2.28t-1.1.7v6.12h-1.4v-11.39h1.4v4.13q.6-.54 1.3-.84.7-.3 1.4-.3 1.3 0 2 .8t.7 2.3v5.3zm5.5-2.1l-2 4.8h-1.1l1.3-4.8zm17.4 2.03q-.4.1-.9.16-.4.1-.8.1-1.2 0-1.9-.68t-.7-2.16v-4.35h-.9v-1.15h.9v-2.35h1.4v2.35h2.9v1.16h-2.9v3.73q0 .65.1 1 0 .37.2.7.1.28.4.42.3.13.9.13.3 0 .7-.1l.5-.17h.1v1.25zm6.7-6.61q-.3-.1-.6-.1h-.7q-.7 0-1.2.3-.6.26-1.2.7v5.82h-1.4v-8.18h1.4v1.2q.8-.65 1.5-.92.6-.28 1.2-.28h.6q.1 0 .4.1v1.4zm-.3-5.6l-1.7 2.78h-1.7l-1.7-2.78h1.2l1.4 1.88 1.3-1.88zm8.5 8.33h-6q0 .76.2 1.32t.6.92q.4.34.9.5.5.2 1.2.2.8 0 1.7-.34.8-.34 1.2-.66v1.5q-.7.3-1.4.5t-1.5.2q-2 0-3.2-1.1-1.1-1.12-1.1-3.14 0-2 1.1-3.2 1.1-1.17 2.8-1.17 1.7 0 2.6.96.9.96.9 2.74v.75zm-1.3-1.05q0-1.1-.6-1.68-.5-.6-1.6-.6t-1.8.66q-.6.65-.7 1.62zm10.6.85q0 1.02-.3 1.84-.3.8-.8 1.37-.5.58-1.1.87-.6.3-1.4.3-.7 0-1.2-.18-.5-.16-1-.44l-.1.38h-1.3v-11.39h1.4v4.07q.5-.47 1.2-.77.6-.3 1.5-.3 1.4 0 2.2 1.1.9 1.12.9 3.15zm-1.4 0q0-1.46-.5-2.22-.5-.76-1.6-.76-.6 0-1.2.27-.6.25-1.1.66v4.7q.5.25 1 .36.4.1.9.1 1.2 0 1.8-.75.7-.74.7-2.35zm9.9 4.15h-1.4v-.87q-.2.12-.5.35-.3.22-.6.35-.3.17-.8.28-.4.13-1 .13-1.1 0-1.9-.74-.8-.74-.8-1.87 0-.93.4-1.5.4-.58 1.2-.9.7-.34 1.8-.46 1-.12 2.2-.18v-.22q0-.47-.1-.78-.2-.3-.5-.48-.3-.17-.7-.23h-.9q-.5 0-1.2.13-.7.14-1.4.4v-1.4q.4-.1 1.1-.23.8-.13 1.5-.13.9 0 1.5.15.7.14 1.1.48.5.34.7.87.3.54.3 1.33v5.55zm-1.4-2.02v-2.28q-.6 0-1.5.12-.8.1-1.3.2-.6.18-1 .54-.3.35-.3.97 0 .7.4 1.06.4.34 1.3.34.7 0 1.3-.27.6-.3 1.1-.7zm18.8 1.95q-.4.1-.8.16-.5.1-.9.1-1.2 0-1.9-.68-.6-.68-.6-2.16v-4.35h-.9v-1.15h.9v-2.35h1.4v2.35h2.8v1.16h-2.8v4.73q0 .37.2.7.2.28.4.42.3.13.9.13.3 0 .7-.1.4-.1.5-.17h.1v1.25zm8.5-3.88h-6q0 .76.2 1.32t.6.92q.4.34.9.5.6.2 1.2.2.8 0 1.7-.34.8-.34 1.2-.66h.1v1.5q-.7.3-1.5.5-.7.2-1.5.2-2 0-3.2-1.1-1.1-1.12-1.1-3.14 0-2 1.1-3.2 1.1-1.17 2.9-1.17 1.6 0 2.5.96.9.96.9 2.74v.75zm-1.3-1.05q0-1.1-.6-1.68-.5-.6-1.6-.6t-1.8.66q-.6.65-.7 1.62zm10.5 5h-1.7l-2.4-3.14-2.3 3.14h-1.6l3.2-4.08-3.2-4.1h1.8l2.3 3.1 2.3-3.1h1.6l-3.2 4.03zm6-.07q-.4.1-.8.16-.5.1-.8.1-1.3 0-1.9-.68-.7-.68-.7-2.16v-4.35h-.9v-1.15h.9v-2.35h1.4v2.35h2.8v1.16h-2.8v4.73q0 .37.2.7.2.28.5.42.3.13.8.13.4 0 .7-.1.4-.1.6-.17v1.25zm19 .07h-1.3v-4.66q0-.56-.1-1.05-.1-.5-.2-.8-.2-.3-.6-.44-.3-.16-.9-.16-.5 0-1.1.28-.7.28-1.2.7v6.12h-1.4v-8.18h1.4v.9q.6-.53 1.3-.83.7-.3 1.4-.3 1.4 0 2 .8.7.8.7 2.3v5.3zm9.5-3.95h-6q0 .76.2 1.32.3.56.7.92.3.34.9.5.5.2 1.1.2.9 0 1.7-.34.8-.34 1.2-.66h.1v1.5q-.7.3-1.4.5-.8.2-1.6.2-2 0-3.1-1.1-1.2-1.12-1.2-3.14 0-2 1.1-3.2 1.1-1.17 2.9-1.17 1.6 0 2.5.96.9.96.9 2.74v.75zm-1.3-1.05q0-1.1-.5-1.68-.6-.6-1.7-.6t-1.7.66q-.7.65-.8 1.62zm10.6.85q0 1.02-.3 1.84-.3.8-.7 1.37-.6.58-1.2.87-.6.3-1.4.3-.6 0-1.2-.18-.5-.16-1-.44l-.1.38h-1.3v-11.39h1.4v4.07q.6-.47 1.2-.77.7-.3 1.5-.3 1.5 0 2.3 1.1.8 1.12.8 3.15zm-1.4 0q0-1.46-.5-2.22-.5-.76-1.5-.76-.6 0-1.3.27-.6.25-1.1.66v4.7q.6.25 1 .36.4.1 1 .1 1.1 0 1.8-.75.6-.74.6-2.35zm10.5.05q0 2-1 3.17-1 1.16-2.7 1.16-1.8 0-2.8-1.16-1-1.16-1-3.16t1-3.14q1-1.17 2.8-1.17 1.7 0 2.7 1.16 1 1.15 1 3.15zm-1.4 0q0-1.58-.6-2.35t-1.7-.77q-1.1 0-1.8.77-.6.77-.6 2.36 0 1.55.6 2.35.7.8 1.8.8t1.7-.8q.6-.8.6-2.34zm16.6-5.45h-1.5v-1.43h1.5zm-.1 9.75q0 1.43-.7 2.16-.7.74-2 .74-.2 0-.7-.1l-.8-.15v-1.3q.3.1.6.17.3.1.7.1.5 0 .8-.14.4-.15.5-.44.2-.3.2-.7.1-.42.1-1v-6.6h-1.7v-1.16h3v8.38zm4.2-9.75h-1.5v-1.43h1.5zm-.1 9.55h-1.3v-8.18h1.3zm9.6 0h-1.4v-4.66q0-.56-.1-1.05-.1-.5-.2-.8-.2-.3-.6-.44-.3-.16-.9-.16-.5 0-1.1.28-.6.28-1.2.7v6.12h-1.4v-8.18h1.4v.9q.6-.53 1.3-.83.7-.3 1.4-.3 1.4 0 2.1.8.7.8.7 2.3v5.3zm9 0h-1.4v-.87q-.2.12-.5.35-.3.22-.6.35-.4.17-.8.28-.4.13-1 .13-1.2 0-1.9-.74-.8-.74-.8-1.87 0-.93.4-1.5.4-.58 1.1-.9.8-.34 1.8-.46 1.1-.12 2.3-.18v-.22q0-.47-.2-.78-.1-.3-.4-.48-.3-.17-.7-.23h-.9q-.5 0-1.2.13-.7.14-1.4.4h-.1v-1.4q.4-.1 1.2-.23.8-.13 1.5-.13.9 0 1.5.15.6.14 1.1.48.5.34.7.87.3.54.3 1.33v5.55zm-1.4-2.02v-2.28q-.6 0-1.5.12-.8.1-1.3.2-.6.18-1 .54-.4.35-.4.97 0 .7.5 1.06.4.34 1.3.34.7 0 1.3-.27.6-.3 1.1-.7zm.5-10.26l-2 2.74h-1.1l1.3-2.74zm21.5 12.28h-1.9l-3.2-3.58-.9.85v2.73h-1.4v-11.4h1.4v7.3l3.9-4.08h1.8l-3.8 3.78zm6.5-6.68h-.1q-.3-.1-.6-.1h-.6q-.7 0-1.3.3-.6.26-1.1.7v5.82h-1.4v-8.18h1.4v1.2q.8-.65 1.4-.92.7-.28 1.3-.28h.5q.2 0 .5.1v1.4zm7.4 6.68h-1.4v-.87q-.1.12-.5.35-.3.22-.6.35-.3.17-.7.28-.5.13-1.1.13-1.1 0-1.9-.74-.7-.74-.7-1.87 0-.93.4-1.5.4-.58 1.1-.9.7-.34 1.8-.46 1-.12 2.2-.18v-.22q0-.47-.1-.78-.2-.3-.5-.48-.3-.17-.7-.23h-.9q-.5 0-1.2.13-.6.14-1.3.4h-.1v-1.4q.4-.1 1.2-.23.7-.13 1.5-.13t1.5.15q.6.14 1.1.48.4.34.7.87.2.54.2 1.33v5.55zm-1.4-2.02v-2.28q-.6 0-1.4.12-.9.1-1.4.2-.6.18-1 .54-.3.35-.3.97 0 .7.4 1.06.4.34 1.3.34.7 0 1.3-.27.6-.3 1.1-.7zm11.3-2.13q0 1.02-.3 1.84-.3.8-.8 1.37-.5.58-1.1.87-.7.3-1.4.3t-1.2-.18q-.5-.16-1-.44l-.1.38h-1.3v-11.39h1.4v4.07q.5-.47 1.2-.77.6-.3 1.5-.3 1.4 0 2.2 1.1.9 1.12.9 3.15zm-1.4 0q0-1.46-.5-2.22-.5-.76-1.6-.76-.6 0-1.2.27-.6.25-1.1.66v4.7q.5.25 1 .36.4.1.9.1 1.2 0 1.8-.75.7-.74.7-2.35zm5-5.4h-1.5v-1.43h1.5zm-.1 9.55h-1.4v-8.18h1.4zm8.7-.5q-.6.32-1.3.5-.6.18-1.3.18-.9 0-1.6-.25-.7-.27-1.3-.8-.5-.52-.8-1.33-.3-.8-.3-1.88 0-2 1.1-3.15 1.1-1.14 2.9-1.14.7 0 1.4.2t1.2.48v1.54q-.7-.5-1.3-.76-.7-.26-1.3-.26-1.2 0-1.9.8-.7.78-.7 2.3 0 1.48.7 2.28.7.8 1.9.8.4 0 .8-.12.4-.1.8-.3l.6-.3q.2-.2.4-.3v1.5zm8.7-3.45h-6.1q0 .76.3 1.32.2.56.6.92.4.34.9.5.5.2 1.1.2.9 0 1.7-.34.9-.34 1.2-.66h.1v1.5q-.7.3-1.4.5t-1.5.2q-2.1 0-3.2-1.1-1.2-1.12-1.2-3.14 0-2 1.1-3.2 1.1-1.17 2.9-1.17 1.7 0 2.6.96.9.96.9 2.74v.75zm-1.4-1.05q0-1.1-.5-1.68-.6-.6-1.7-.6t-1.7.66q-.7.65-.8 1.62zm-354.7 14.2h-1.6v-1.43h1.6zm-.1 9.75q0 1.43-.7 2.16-.8.75-2 .75-.3 0-.8-.1-.4-.1-.8-.15v-1.3h.1q.2.1.6.17.3.1.6.1.6 0 .9-.14.3-.15.5-.44.1-.3.2-.72v-7.6h-1.7v-1.15h3.1v8.38zm9.1-.2h-1.4v-.87q-.2.12-.5.35-.3.22-.6.35-.4.17-.8.28-.5.12-1.1.12-1.1 0-1.8-.74-.8-.73-.8-1.86 0-.93.4-1.5.4-.58 1.1-.9.8-.34 1.8-.46 1.1-.12 2.3-.18v-.2q0-.48-.2-.8-.1-.3-.5-.47-.2-.17-.7-.23h-.8q-.6 0-1.2.14-.7.14-1.4.4h-.1v-1.4q.4-.1 1.2-.23.8-.13 1.5-.13.9 0 1.5.15.6.14 1.1.48.5.34.7.87.3.54.3 1.33v5.55zm-1.4-2.02v-2.27q-.6 0-1.5.1t-1.4.22q-.5.17-.9.53t-.4.98q0 .7.4 1.06.5.35 1.3.35t1.4-.28q.6-.3 1.1-.7zm11.4 2.02h-1.8l-3.3-3.58-.8.85v2.73h-1.4v-11.4h1.4v7.3l3.9-4.08h1.8l-3.8 3.78zm8.3-4.09q0 2-1 3.16-1 1.16-2.7 1.16-1.8 0-2.8-1.16-1-1.16-1-3.16t1-3.15q1-1.16 2.8-1.16 1.7 0 2.7 1.17 1 1.16 1 3.16zm-1.4 0q0-1.6-.6-2.36-.6-.77-1.7-.77-1.2 0-1.8.77-.6.77-.6 2.36 0 1.54.6 2.34.6.8 1.8.8 1 0 1.7-.8.6-.8.6-2.34zm22.7-5.46h-1.6v-1.43h1.6zm-.1 9.75q0 1.43-.8 2.16-.7.75-1.9.75-.3 0-.8-.1l-.8-.15v-1.3h.1q.2.1.5.17.4.1.7.1.5 0 .8-.14.4-.15.5-.44.2-.3.2-.72.1-.4.1-1v-6.6h-1.7v-1.15h3.1v8.38zm9.5-4.15h-6q0 .76.2 1.32t.6.92q.4.35.9.52.6.18 1.2.18.8 0 1.7-.33.8-.33 1.2-.65v1.5q-.7.3-1.4.5t-1.5.2q-2 0-3.2-1.1-1.1-1.12-1.1-3.14 0-2 1.1-3.18 1.1-1.18 2.9-1.18 1.6 0 2.5.97.9.97.9 2.75v.75zm-1.3-1.05q0-1.1-.6-1.68-.5-.6-1.6-.6t-1.8.66q-.6.65-.7 1.62zm24.2 4.93q-.4.1-.9.16-.4.1-.8.1-1.2 0-1.9-.67-.6-.68-.6-2.16v-4.34h-1v-1.17h1v-2.35h1.3v2.35h2.9v1.16h-2.9v3.72q0 .65.1 1 0 .37.2.7.1.28.4.42.3.13.9.13.3 0 .7-.1l.5-.17h.1v1.24zm8 .07h-1.4v-.87q-.1.12-.5.35-.3.22-.6.35-.3.17-.8.28-.4.12-1 .12-1.1 0-1.9-.74-.7-.73-.7-1.86 0-.93.4-1.5.4-.58 1.1-.9.7-.34 1.8-.46 1-.12 2.2-.18v-.2q0-.48-.1-.8-.2-.3-.5-.47-.3-.17-.7-.23h-.9q-.5 0-1.2.14-.6.14-1.3.4h-.1v-1.4q.4-.1 1.1-.23.8-.13 1.5-.13.9 0 1.6.15.6.14 1.1.48.4.34.7.87.2.54.2 1.33v5.55zm-1.4-2.02v-2.27q-.6 0-1.4.1-.9.1-1.4.22-.6.17-1 .53-.3.36-.3.98 0 .7.4 1.06.4.35 1.3.35.7 0 1.3-.28.6-.3 1.1-.7zm8.3 1.95q-.4.1-.8.16-.5.1-.8.1-1.3 0-1.9-.67-.7-.68-.7-2.16v-4.34h-.9v-1.17h.9v-2.35h1.4v2.35h2.8v1.16h-2.8v4.72q0 .37.2.7.2.28.5.42.2.13.8.13.4 0 .7-.1.4-.1.5-.17h.1v1.24zm8.7-4.02q0 2-1.1 3.16-1 1.16-2.7 1.16-1.7 0-2.8-1.16-1-1.16-1-3.16t1-3.15q1.1-1.16 2.8-1.16 1.7 0 2.7 1.17 1.1 1.16 1.1 3.16zm-1.5 0q0-1.6-.6-2.36-.6-.77-1.7-.77t-1.7.77q-.7.77-.7 2.36 0 1.54.7 2.34.6.8 1.7.8t1.7-.8q.6-.8.6-2.34zm5.7 4.09h-1.7v-2.1h1.7zm32.5-10.91l-2.8 10.9h-1.6l-2.3-9.04-2.3 9.05h-1.5l-2.9-10.9h1.5l2.2 9.06 2.3-9.06h1.5l2.3 9.16 2.2-9.16h1.4zm8.2 6.96h-6q0 .76.2 1.32t.6.92q.4.35.9.52.5.18 1.2.18.8 0 1.6-.33.9-.33 1.3-.65v1.5q-.7.3-1.4.5t-1.5.2q-2.1 0-3.2-1.1-1.1-1.12-1.1-3.14 0-2 1.1-3.18 1.1-1.18 2.8-1.18 1.7 0 2.6.97.9.97.9 2.75v.75zm-1.4-1.05q0-1.1-.5-1.68-.5-.6-1.6-.6t-1.8.66q-.7.65-.7 1.62zm10.7.85q0 1.02-.3 1.84-.3.82-.8 1.38-.5.58-1.1.87-.7.28-1.4.28t-1.2-.17q-.5-.15-1-.43l-.1.38h-1.3v-11.4h1.4v4.07q.5-.47 1.2-.77.6-.3 1.4-.3 1.5 0 2.3 1.1.9 1.12.9 3.15zm-1.4 0q0-1.46-.5-2.22-.5-.76-1.6-.76-.6 0-1.2.27-.6.24-1.1.65v4.7q.5.25 1 .36.4.1.9.1 1.2 0 1.8-.74.7-.75.7-2.36zm10.5.06q0 2-1 3.16-1.1 1.16-2.8 1.16-1.7 0-2.7-1.16-1.1-1.16-1.1-3.16t1.1-3.15q1-1.16 2.7-1.16 1.7 0 2.8 1.17 1 1.16 1 3.16zm-1.4 0q0-1.6-.7-2.36-.6-.77-1.7-.77t-1.7.77q-.6.77-.6 2.36 0 1.54.6 2.34.6.8 1.7.8t1.7-.8q.7-.8.7-2.34zm10.5-4.09l-3.3 8.18h-1.4l-3.3-8.18h1.5l2.5 6.5 2.5-6.5zm8.6 4.23h-6q0 .76.2 1.32.3.56.7.92.3.35.9.52.5.18 1.1.18.9 0 1.7-.33.8-.33 1.2-.65h.1v1.5q-.7.3-1.4.5-.8.2-1.6.2-2 0-3.1-1.1-1.2-1.12-1.2-3.14 0-2 1.1-3.18 1.1-1.18 2.9-1.18 1.6 0 2.5.97.9.97.9 2.75v.75zm-1.3-1.05q0-1.1-.6-1.68-.5-.6-1.6-.6t-1.7.66q-.7.65-.8 1.62zm.2-7.28l-2 2.74h-1.1l1.3-2.73h1.8zm25.6 9.93q0 1.1-.9 1.83-.9.72-2.5.72-1 0-1.7-.22-.8-.22-1.3-.47v-1.55h.1q.6.5 1.4.8.8.28 1.6.28.9 0 1.4-.3.5-.28.5-.9 0-.5-.3-.75t-1-.42q-.3-.1-.8-.14-.5-.1-.9-.2-1-.28-1.5-.83-.4-.56-.4-1.36 0-.5.2-.95.2-.45.6-.8.4-.35 1-.54.7-.2 1.5-.2.7 0 1.4.17.8.18 1.3.44v1.46h-.1q-.5-.4-1.3-.65-.7-.27-1.4-.27-.8 0-1.3.3-.5.28-.5.85 0 .5.3.77.3.25 1 .4l.8.2.8.15q1 .22 1.5.76t.5 1.43zm6.2 2.28q-.4.1-.8.16-.5.1-.8.1-1.3 0-1.9-.67-.7-.68-.7-2.16v-4.34h-.9v-1.17h.9v-2.35h1.4v2.35h2.8v1.16h-2.8v4.72l.2.7q.2.28.5.42.3.13.8.13.4 0 .7-.1.4-.1.6-.17v1.24zm6.8-6.61h-.1q-.3-.1-.6-.1h-.6q-.7 0-1.3.3-.6.26-1.1.7v5.82h-1.4v-8.2h1.4v1.22q.8-.66 1.4-.93.7-.3 1.3-.3h.5q.2 0 .5.1v1.42zm7.7 6.68h-1.4v-.87q-.2.12-.5.35-.3.22-.6.35-.3.17-.8.28-.4.12-1 .12-1.1 0-1.9-.74-.8-.73-.8-1.86 0-.93.4-1.5.4-.58 1.2-.9.7-.34 1.8-.46 1-.12 2.2-.18v-.2q0-.48-.2-.8-.1-.3-.4-.47-.3-.17-.7-.23h-.9q-.5 0-1.2.14t-1.4.4v-1.4q.4-.1 1.1-.23.8-.13 1.5-.13.9 0 1.5.15.7.14 1.1.48.5.34.7.87.3.54.3 1.33v5.55zm-1.4-2.02v-2.27q-.6 0-1.5.1-.8.1-1.3.22-.6.17-1 .53-.3.36-.3.98 0 .7.4 1.06.4.35 1.3.35.7 0 1.3-.28.6-.3 1.1-.7zm.5-10.26l-2 2.73h-1.1l1.3-2.73zm10.4 12.28h-1.4v-4.66q0-.57-.1-1.06 0-.5-.2-.78-.2-.3-.5-.45-.4-.15-.9-.15-.6 0-1.2.28t-1.2.7v6.12h-1.4v-8.18h1.4v.9q.7-.53 1.4-.83.6-.3 1.4-.3 1.3 0 2 .8t.7 2.3v5.3zm10.1 0h-1.9l-3.2-3.58-.9.85v2.73h-1.4v-11.4h1.4v7.3l4-4.08h1.7l-3.8 3.78zm8.5-8.18l-4.8 11.2h-1.5l1.6-3.42-3.3-7.78h1.5l2.5 6.06 2.5-6.06zm20.9-1.37h-1.6v-1.43h1.6zm-.1 9.75q0 1.43-.7 2.16-.8.75-2 .75-.3 0-.8-.1l-.8-.15v-1.3h.1q.2.1.5.17.4.1.7.1.6 0 .9-.14.3-.15.5-.44.1-.3.2-.72v-7.6h-1.7v-1.15h3.1v8.38zm8.5-2.55q0 1.1-.9 1.83-.9.72-2.5.72-.9 0-1.7-.22-.7-.22-1.3-.47v-1.55h.1q.7.5 1.5.8.8.28 1.5.28.9 0 1.4-.3.5-.28.5-.9 0-.5-.3-.75-.2-.25-1-.42-.3-.1-.8-.14-.5-.1-.8-.2-1.1-.28-1.6-.83-.4-.56-.4-1.36 0-.5.2-.95.2-.45.6-.8.4-.35 1.1-.54.6-.2 1.4-.2.7 0 1.5.17.7.18 1.2.44v1.46h-.1q-.5-.4-1.2-.65-.8-.27-1.5-.27-.8 0-1.3.3-.5.28-.5.85 0 .5.3.77.3.25 1 .4l.8.2.8.15q1 .22 1.5.76t.5 1.43zm9-1.74q0 2-1 3.16-1.1 1.16-2.8 1.16-1.7 0-2.7-1.16-1.1-1.16-1.1-3.16t1.1-3.15q1-1.16 2.7-1.16 1.7 0 2.8 1.17 1 1.16 1 3.16zm-1.4 0q0-1.6-.7-2.36-.6-.77-1.7-.77t-1.7.77q-.6.77-.6 2.36 0 1.54.6 2.34.6.8 1.7.8t1.7-.8q.7-.8.7-2.34zm10.3 4.09h-1.4v-.9q-.7.54-1.3.83-.6.3-1.4.3-1.3 0-2-.8-.7-.78-.7-2.3v-5.3h1.3v4.65q0 .62.1 1.07.1.43.2.75.2.32.6.47.3.15.9.15.5 0 1.1-.28.7-.3 1.2-.72v-6.1h1.4v8.17zm23.5-.07q-.4.1-.8.16-.5.1-.9.1-1.2 0-1.9-.67-.6-.68-.6-2.16v-4.34h-.9v-1.17h.9v-2.35h1.4v2.35h2.8v1.16h-2.8v4.72q0 .37.2.7.2.28.4.42.3.13.9.13.3 0 .7-.1.4-.1.5-.17h.1v1.24zm8.6-4.02q0 2-1 3.16-1 1.16-2.7 1.16-1.8 0-2.8-1.16-1-1.16-1-3.16t1-3.15q1-1.16 2.8-1.16 1.7 0 2.7 1.17 1 1.16 1 3.16zm-1.4 0q0-1.6-.6-2.36-.6-.77-1.7-.77t-1.8.77q-.6.77-.6 2.36 0 1.54.6 2.34.7.8 1.8.8t1.7-.8q.6-.8.6-2.34zm7.8 4.02q-.4.1-.8.16-.5.1-.8.1-1.3 0-1.9-.67-.7-.68-.7-2.16v-4.34h-.9v-1.17h.9v-2.35h1.4v2.35h2.8v1.16h-2.8v4.72q0 .37.2.7.2.28.5.42.2.13.8.13.4 0 .7-.1.4-.1.6-.17v1.24zm3.2-9.48h-1.6v-1.43h1.6zm-.1 9.55h-1.4v-8.18h1.4zm8.6 0h-6.6v-1.02l4.8-6h-4.7v-1.16h6.4v.98l-4.8 6.03h4.9zm-.8-12.28l-1.7 2.78h-1.7l-1.6-2.78h1.1l1.4 1.88 1.3-1.88zm-350.8 26.83q0 1-.2 1.83-.3.82-.9 1.4-.4.54-1.1.84-.6.3-1.4.3-.6 0-1.1-.15-.5-.14-1.1-.43v3.42h-1.4v-11.2h1.4v.85q.6-.46 1.2-.76.7-.3 1.5-.3 1.5 0 2.3 1.1.8 1.12.8 3.1zm-1.4 0q0-1.47-.5-2.2-.5-.74-1.5-.74-.6 0-1.2.26-.6.25-1.2.67v4.63q.6.26 1 .36.4.1 1 .1 1.1 0 1.8-.78.6-.78.6-2.3zm10.6.1q0 2-1.1 3.17-1 1.16-2.7 1.16-1.7 0-2.8-1.16-1-1.16-1-3.16t1-3.14q1.1-1.17 2.8-1.17 1.7 0 2.7 1.16 1.1 1.15 1.1 3.15zm-1.5 0q0-1.58-.6-2.35t-1.7-.77q-1.1 0-1.8.77-.6.77-.6 2.36 0 1.55.7 2.35.6.8 1.7.8t1.7-.8q.6-.8.6-2.34zm9.4 1.74q0 1.12-.9 1.84t-2.5.72q-.9 0-1.7-.22-.7-.22-1.3-.47v-1.54h.1q.7.5 1.5.8.8.27 1.5.27.9 0 1.4-.3.5-.28.5-.9 0-.5-.2-.75-.3-.25-1.1-.42-.3-.1-.8-.15l-.8-.2q-1.1-.27-1.6-.82-.4-.56-.4-1.36 0-.5.2-.95.2-.45.6-.8.4-.35 1.1-.54.6-.2 1.4-.2.7 0 1.5.17.7.18 1.2.44v1.44h-.1q-.5-.38-1.2-.64-.8-.28-1.5-.28-.8 0-1.3.3-.5.28-.5.85 0 .5.3.77.3.25 1 .4.4.1.9.2.4.1.7.15 1 .22 1.5.76.5.55.5 1.44zm9.4 2.36h-1.8l-3.3-3.58-.8.85v2.73h-1.4v-11.4h1.4v7.3l3.9-4.08h1.8l-3.8 3.78zm2.9 0h-1.4v-11.4h1.4zm9 0h-1.3v-.87q-.2.12-.5.35-.3.22-.6.35-.4.17-.8.28-.5.13-1.1.13-1.1 0-1.9-.74-.7-.74-.7-1.87 0-.93.4-1.5.4-.58 1.1-.9.8-.34 1.8-.46 1.1-.12 2.3-.18v-.22q0-.47-.2-.78-.2-.3-.5-.48-.3-.17-.7-.23h-.8q-.6 0-1.2.13-.7.14-1.4.4h-.1v-1.4q.4-.1 1.2-.23.7-.13 1.5-.13t1.5.15q.6.14 1.1.48.4.34.7.87.2.54.2 1.33v5.55zm-1.3-2.02v-2.28q-.7 0-1.5.12-.9.1-1.4.2-.6.18-.9.54-.4.35-.4.97 0 .7.4 1.06.4.34 1.3.34.7 0 1.3-.27.6-.3 1.2-.7zm.5-10.26l-2 2.74h-1.1l1.3-2.74zm10.1 12.28h-1.3v-.86q-.6.5-1.3.8-.6.3-1.4.3-1.5 0-2.3-1.14-.9-1.13-.9-3.13 0-1.04.3-1.85.3-.82.8-1.4.5-.54 1.2-.84.7-.3 1.4-.3.6 0 1.1.15.5.13 1.1.42v-3.55h1.3zm-1.3-2.02v-4.7q-.6-.24-1-.33-.5-.1-1-.1-1.2 0-1.8.8-.7.8-.7 2.3 0 1.45.5 2.2.5.77 1.6.77.6 0 1.2-.26t1.2-.68zm10.4 2.02h-1.4v-.87q-.2.12-.5.35-.3.22-.6.35-.3.17-.8.28-.4.13-1 .13-1.1 0-1.9-.74-.8-.74-.8-1.87 0-.93.4-1.5.4-.58 1.2-.9.7-.34 1.8-.46 1-.12 2.2-.18v-.22q0-.47-.1-.78-.2-.3-.5-.48-.3-.17-.7-.23h-.9q-.5 0-1.2.13-.6.14-1.4.4v-1.4q.4-.1 1.1-.23.8-.13 1.5-.13.9 0 1.5.15.7.14 1.2.48.4.34.7.87.2.54.2 1.33v5.55zm-1.4-2.02v-2.28q-.6 0-1.5.12-.8.1-1.3.2-.6.18-1 .54-.3.35-.3.97 0 .7.4 1.06.4.34 1.3.34.7 0 1.3-.27.6-.3 1.1-.7zm10.9 2.02h-1.4v-5.71q-.1-.5-.3-.8-.2-.3-.5-.44-.4-.16-.9-.16-.6 0-1.2.28t-1.2.7v6.12h-1.3v-8.18h1.3v.9q.7-.53 1.4-.83.7-.3 1.4-.3 1.3 0 2 .8t.7 2.3v5.3zm9.5-3.95h-6q0 .76.2 1.32t.6.92q.4.34.9.5.6.2 1.2.2.8 0 1.7-.34.8-.34 1.2-.66v1.5q-.7.3-1.4.5t-1.5.2q-2 0-3.2-1.1-1.1-1.12-1.1-3.14 0-2 1.1-3.2 1.1-1.17 2.9-1.17 1.6 0 2.5.96.9.96.9 2.74v.75zm-1.3-1.05q0-1.1-.6-1.68-.5-.6-1.6-.6t-1.8.66q-.6.65-.7 1.62zm.1-7.28l-2 2.74h-1.1l1.3-2.74zm14.8 12.28h-6.6v-1.02l4.8-6h-4.7v-1.16h6.4v.98l-4.8 6.03h4.9zm8.7-3.95h-6q0 .76.2 1.32.3.56.7.92.3.34.9.5.5.2 1.1.2.9 0 1.7-.34.8-.34 1.2-.66h.1v1.5q-.7.3-1.4.5-.8.2-1.6.2-2 0-3.1-1.1-1.2-1.12-1.2-3.14 0-2 1.1-3.2 1.1-1.17 2.9-1.17 1.6 0 2.5.96.9.96.9 2.74v.75zm-1.3-1.05q0-1.1-.5-1.68-.6-.6-1.7-.6t-1.7.66q-.7.65-.8 1.62zm14.9 2.64q0 1.12-.9 1.84-1 .72-2.6.72-.9 0-1.6-.22-.8-.22-1.3-.47v-1.54h.1q.6.5 1.4.8.8.27 1.5.27 1 0 1.5-.3.5-.28.5-.9 0-.5-.3-.75t-1.1-.42q-.3-.1-.7-.15-.5-.1-.9-.2-1.1-.27-1.5-.82-.5-.56-.5-1.36 0-.5.2-.95.2-.45.7-.8.4-.35 1-.54.6-.2 1.4-.2.8 0 1.5.17.8.18 1.3.44v1.44h-.1q-.5-.38-1.3-.64-.7-.28-1.5-.28-.7 0-1.2.3-.6.28-.6.85 0 .5.4.77.3.25.9.4.4.1.9.2l.8.15q.9.22 1.5.76.5.55.5 1.44zm9.2-1.84q0 1-.3 1.83-.3.82-.8 1.4-.5.54-1.2.84-.6.3-1.4.3-.6 0-1.1-.15-.5-.14-1.1-.43v3.42h-1.3v-11.2h1.3v.85q.6-.46 1.3-.76.7-.3 1.4-.3 1.5 0 2.3 1.1.9 1.12.9 3.1zm-1.5 0q0-1.47-.5-2.2-.5-.74-1.5-.74-.6 0-1.2.26-.6.25-1.2.67v4.63q.6.26 1 .36.5.1 1 .1 1.2 0 1.8-.78.6-.78.6-2.3zm10.6.1q0 2-1 3.17-1.1 1.16-2.8 1.16-1.7 0-2.8-1.16-1-1.16-1-3.16t1-3.14q1.1-1.17 2.8-1.17 1.7 0 2.8 1.16 1 1.15 1 3.15zm-1.4 0q0-1.58-.7-2.35-.6-.77-1.7-.77t-1.7.77q-.6.77-.6 2.36 0 1.55.6 2.35t1.7.8q1.1 0 1.7-.8.7-.8.7-2.34zm10.3 4.1h-1.4v-.9q-.7.54-1.3.83-.6.3-1.4.3-1.3 0-2-.8-.7-.78-.7-2.3v-5.3h1.3v4.65q0 .62.1 1.07.1.43.2.75.2.32.6.47.3.15.9.15.5 0 1.1-.28.7-.28 1.2-.7v-6.12h1.4zm8.6-2.36q0 1.12-1 1.84-.9.72-2.5.72-.9 0-1.7-.22-.7-.22-1.2-.47v-1.54q.7.5 1.5.8.8.27 1.5.27.9 0 1.4-.3.6-.28.6-.9 0-.5-.3-.75t-1.1-.42q-.3-.1-.8-.15l-.8-.2q-1.1-.27-1.6-.82-.4-.56-.4-1.36 0-.5.2-.95.2-.45.6-.8.5-.35 1.1-.54.6-.2 1.4-.2.7 0 1.5.17.7.18 1.2.44v1.44q-.6-.38-1.3-.64-.8-.28-1.5-.28-.8 0-1.3.3-.5.28-.5.85 0 .5.3.77.3.25 1 .4.4.1.9.2.4.1.8.15.9.22 1.4.76.6.55.6 1.44zm6.2 2.29q-.4.1-.9.16-.4.1-.8.1-1.2 0-1.9-.68-.6-.68-.6-2.16v-4.35h-1v-1.15h1v-2.35h1.3v2.35h2.9v1.16h-2.9v3.73q0 .65.1 1 0 .37.2.7.1.28.4.42.3.13.9.13.3 0 .7-.1l.5-.17h.1v1.25zm8.7-8.11l-4.8 11.2h-1.5l1.5-3.42-3.2-7.78h1.5l2.5 6.06 2.5-6.06zm14.8 8.18h-1.8l-3.3-3.58-.9.85v2.73h-1.4v-11.4h1.4v7.3l4-4.08h1.7l-3.8 3.78zm6.6-6.68h-.1q-.3-.1-.6-.1h-.7q-.6 0-1.2.3-.6.26-1.2.7v5.82h-1.3v-8.18h1.3v1.2q.9-.65 1.5-.92.6-.28 1.3-.28h.5q.1 0 .5.1v1.4zm7.4 6.68h-1.4v-.87q-.2.12-.5.35-.3.22-.6.35-.3.17-.8.28-.4.13-1 .13-1.1 0-1.9-.74-.8-.74-.8-1.87 0-.93.4-1.5.4-.58 1.2-.9.7-.34 1.8-.46 1-.12 2.2-.18v-.22q0-.47-.2-.78-.1-.3-.4-.48-.3-.17-.7-.23h-.9q-.5 0-1.2.13-.7.14-1.4.4h-.1v-1.4q.4-.1 1.2-.23.8-.13 1.5-.13.9 0 1.5.15.7.14 1.1.48.5.34.7.87.3.54.3 1.33v5.55zm-1.4-2.02v-2.28q-.6 0-1.5.12-.8.1-1.3.2-.6.18-1 .54-.4.35-.4.97 0 .7.5 1.06.4.34 1.3.34.7 0 1.3-.27.6-.3 1.1-.7zm11.2-2.13q0 1.02-.3 1.84-.2.8-.7 1.37-.6.58-1.2.87-.6.3-1.3.3-.7 0-1.3-.18-.5-.16-1-.44l-.1.38h-1.3v-11.4h1.4v4.07q.6-.47 1.2-.77.7-.3 1.5-.3 1.5 0 2.3 1.1.8 1.12.8 3.15zm-1.4 0q0-1.46-.5-2.22-.5-.76-1.5-.76-.6 0-1.2.27-.7.25-1.2.66v4.7q.6.25 1 .36.4.1 1 .1 1.1 0 1.8-.75.6-.74.6-2.35zm5.1-5.4h-1.6v-1.43h1.6zm-.1 9.55h-1.4v-8.18h1.4zm8.7-.5q-.7.32-1.3.5-.6.18-1.3.18-.9 0-1.6-.25-.8-.27-1.3-.8-.5-.52-.8-1.33-.3-.8-.3-1.88 0-2 1.1-3.15 1.1-1.14 2.9-1.14.7 0 1.4.2.6.2 1.2.48v1.54h-.1q-.6-.5-1.3-.76-.6-.26-1.3-.26-1.1 0-1.8.8-.7.78-.7 2.3 0 1.48.7 2.28.6.8 1.8.8.4 0 .9-.12.4-.1.8-.3.3-.14.5-.3.3-.2.4-.3h.1v1.5zm4.6-1.6l-2 4.8h-1.1l1.3-4.8zm15.7 2.1h-1.9l-3.2-3.58-.9.85v2.73h-1.4v-11.4h1.4v7.3l4-4.08h1.7l-3.8 3.78zm5.7-.07q-.4.1-.9.16-.4.1-.8.1-1.3 0-1.9-.68-.7-.68-.7-2.16v-4.35h-.9v-1.15h.9v-2.35h1.4v2.35h2.9v1.16h-2.9v3.73q0 .65.1 1 0 .37.2.7.1.28.4.42.3.13.9.13.3 0 .7-.1l.5-.17h.1v1.25zm8.5-3.88h-6q0 .76.2 1.32t.6.92q.4.34.9.5.5.2 1.2.2.8 0 1.6-.34.9-.34 1.2-.66h.1v1.5q-.7.3-1.4.5t-1.5.2q-2.1 0-3.2-1.1-1.1-1.12-1.1-3.14 0-2 1-3.2 1.1-1.17 2.9-1.17 1.7 0 2.6.96.9.96.9 2.74v.75zm-1.4-1.05q0-1.1-.5-1.68-.5-.6-1.6-.6t-1.8.66q-.7.65-.7 1.62zm8.6-1.68h-.1q-.3-.1-.6-.1h-.7q-.6 0-1.2.3-.6.26-1.2.7v5.82h-1.3v-8.18h1.3v1.2q.9-.65 1.5-.92.6-.28 1.3-.28h.5q.2 0 .5.1v1.4zm8.1 2.73h-6q0 .76.2 1.32.3.56.7.92.3.34.9.5.5.2 1.1.2.8 0 1.7-.34.8-.34 1.2-.66h.1v1.5q-.7.3-1.4.5-.8.2-1.6.2-2 0-3.2-1.1-1.1-1.12-1.1-3.14 0-2 1.1-3.2 1.1-1.17 2.9-1.17 1.6 0 2.5.96.9.96.9 2.74v.75zm-1.3-1.05q0-1.1-.6-1.68-.5-.6-1.6-.6t-1.8.66q-.6.65-.7 1.62zm.2-7.28l-2 2.74h-1.1l1.3-2.74zm11.4 2.73h-1.6v-1.43h1.6zm-.1 9.75q0 1.43-.7 2.16-.8.74-2 .74-.3 0-.8-.1l-.8-.15v-1.3h.1q.2.1.5.17.4.1.7.1.6 0 .9-.14.3-.15.5-.44.1-.3.2-.7v-7.6h-1.7v-1.16h3.1v8.38zm8.5-2.56q0 1.12-.9 1.84t-2.5.72q-.9 0-1.7-.22-.7-.22-1.3-.47v-1.54h.1q.7.5 1.5.8.8.27 1.5.27.9 0 1.4-.3.5-.28.5-.9 0-.5-.3-.75-.2-.25-1-.42-.3-.1-.8-.15-.5-.1-.8-.2-1.1-.27-1.6-.82-.4-.56-.4-1.36 0-.5.2-.95.2-.45.6-.8.4-.35 1.1-.54.6-.2 1.4-.2.7 0 1.5.17.7.18 1.2.44v1.44h-.1q-.5-.38-1.2-.64-.8-.28-1.5-.28-.8 0-1.3.3-.5.28-.5.85 0 .5.3.77.3.25 1 .4l.8.2.8.15q1 .22 1.5.76.5.55.5 1.44zm9-1.74q0 2-1 3.17-1.1 1.16-2.8 1.16-1.7 0-2.7-1.16-1.1-1.16-1.1-3.16t1.1-3.14q1-1.17 2.7-1.17 1.7 0 2.8 1.16 1 1.15 1 3.15zm-1.4 0q0-1.58-.7-2.35-.6-.77-1.7-.77t-1.7.77q-.6.77-.6 2.36 0 1.55.6 2.35t1.7.8q1.1 0 1.7-.8.7-.8.7-2.34zm10.3 4.1h-1.4v-.9q-.7.54-1.3.83-.6.3-1.4.3-1.3 0-2-.8-.7-.78-.7-2.3v-5.3h1.3v4.65q0 .62.1 1.07.1.43.2.75.2.32.6.47.3.15.9.15.5 0 1.1-.28.7-.28 1.2-.7v-6.12h1.4zm15.2 0h-1.4v-4.66q0-.56-.1-1.05 0-.5-.2-.8-.2-.3-.5-.44-.4-.16-.9-.16-.6 0-1.2.28t-1.2.7v6.12h-1.4v-8.18h1.4v.9q.6-.53 1.3-.83.7-.3 1.5-.3 1.3 0 2 .8t.7 2.3v5.3zm9.5-3.95h-6.1q0 .76.3 1.32.2.56.6.92.4.34.9.5.5.2 1.1.2.9 0 1.7-.34.9-.34 1.2-.66h.1v1.5q-.7.3-1.4.5t-1.5.2q-2.1 0-3.2-1.1-1.2-1.12-1.2-3.14 0-2 1.1-3.2 1.1-1.17 2.9-1.17 1.7 0 2.6.96.9.96.9 2.74v.75zm-1.4-1.05q0-1.1-.5-1.68-.6-.6-1.7-.6t-1.7.66q-.7.65-.8 1.62zm.4-7.28l-1.7 2.78h-1.6l-1.7-2.78h1.1l1.4 1.88 1.4-1.88zm10.5 12.28h-1.8l-3.3-3.58-.9.85v2.73h-1.4v-11.4h1.4v7.3l4-4.08h1.7l-3.8 3.78zm8.1 0h-1.4v-.86q-.6.5-1.2.8-.7.3-1.4.3-1.5 0-2.4-1.14-.8-1.13-.8-3.13 0-1.04.3-1.85.3-.82.8-1.4.5-.54 1.1-.84.7-.3 1.4-.3.6 0 1.1.15.5.13 1.1.42v-3.55h1.4zm-1.4-2.02v-4.7q-.6-.24-1-.33-.4-.1-1-.1-1.1 0-1.8.8-.6.8-.6 2.3 0 1.45.5 2.2.5.77 1.6.77.6 0 1.2-.26t1.1-.68zm11.2-6.16l-4.8 11.2h-1.5l1.5-3.42-3.2-7.78h1.5l2.5 6.06 2.5-6.06zm-351.9 18.73l-3.3 8.2h-1.4l-3.3-8.2h1.5l2.6 6.5 2.5-6.5zm8.5 4.3h-6q0 .7.2 1.3.3.5.7.9.4.3.9.5t1.1.2q.9 0 1.7-.3.9-.4 1.2-.7h.1v1.5q-.7.3-1.4.5-.8.2-1.6.2-2 0-3.1-1.1-1.2-1.1-1.2-3.1 0-2.1 1.1-3.2 1.1-1.2 2.9-1.2 1.7 0 2.5 1 .9.9.9 2.7zm-1.3-1.1q0-1.1-.5-1.7-.6-.6-1.7-.6t-1.7.7q-.7.6-.8 1.6zm10.1 5h-1.4v-.9q-.6.6-1.2.8-.7.3-1.4.3-1.5 0-2.4-1.1-.8-1.1-.8-3.1 0-1.1.3-1.9.3-.8.8-1.4.5-.5 1.1-.8.7-.3 1.4-.3.6 0 1.1.1.5.2 1.1.4v-3.5h1.4zm-1.4-2v-4.7q-.6-.3-1-.4h-1q-1.1 0-1.8.8-.6.8-.6 2.2 0 1.5.5 2.3.5.7 1.6.7.6 0 1.2-.2.6-.3 1.1-.7zm5.5 2h-1.4v-11.4h1.4zm9.5-3.9h-6q0 .7.2 1.3.2.5.6.9.4.3.9.5.6.2 1.2.2.8 0 1.7-.3.8-.4 1.2-.7v1.5q-.7.3-1.4.5t-1.5.2q-2 0-3.2-1.1-1.1-1.1-1.1-3.1 0-2.1 1.1-3.2 1.1-1.2 2.9-1.2 1.6 0 2.5 1 .9.9.9 2.7zm-1.3-1.1q0-1.1-.6-1.7-.5-.6-1.6-.6t-1.8.7q-.6.6-.7 1.6zm17.8 2.6q0 1.2-.9 1.9t-2.5.7q-.9 0-1.7-.2-.8-.2-1.3-.5v-1.5h.1q.6.5 1.4.7.8.3 1.6.3.9 0 1.4-.3.5-.3.5-.9 0-.5-.3-.7-.2-.3-1-.4-.3-.1-.8-.2t-.9-.2q-1-.3-1.5-.8-.4-.6-.4-1.4 0-.5.2-.9.2-.5.6-.8.4-.4 1-.6.7-.2 1.5-.2.7 0 1.4.2.8.2 1.3.4v1.5h-.1q-.5-.4-1.3-.6-.7-.3-1.4-.3-.8 0-1.3.3t-.5.8q0 .5.3.8.3.3 1 .4l.8.2q.5.1.8.2 1 .2 1.5.7.5.5.5 1.4zm8.8-1.5h-6q0 .7.2 1.3.3.5.7.9.3.3.9.5.5.2 1.1.2.9 0 1.7-.3.8-.4 1.2-.7h.1v1.5q-.7.3-1.4.5-.8.2-1.6.2-2 0-3.1-1.1-1.2-1.1-1.2-3.1 0-2.1 1.1-3.2 1.1-1.2 2.9-1.2 1.6 0 2.5 1 .9.9.9 2.7zm-1.3-1.1q0-1.1-.5-1.7-.6-.6-1.7-.6t-1.7.7q-.7.6-.8 1.6zm10.6.8q0 1.1-.3 1.9-.3.8-.7 1.4-.6.5-1.2.8-.6.3-1.4.3-.6 0-1.2-.1-.5-.2-1-.5l-.1.4h-1.3v-11.4h1.4v4.1q.6-.5 1.2-.8.7-.3 1.5-.3 1.5 0 2.3 1.1.8 1.1.8 3.1zm-1.4.1q0-1.5-.5-2.2-.5-.8-1.5-.8-.6 0-1.3.3-.6.2-1.1.6v4.7q.6.3 1 .4.4.1 1 .1 1.1 0 1.8-.8.6-.7.6-2.3zm10.4.2h-6q0 .7.2 1.3.2.5.6.9.4.3.9.5.6.2 1.2.2.8 0 1.7-.3.8-.4 1.2-.7h.1v1.5q-.7.3-1.5.5-.7.2-1.5.2-2 0-3.2-1.1-1.1-1.1-1.1-3.1 0-2.1 1.1-3.2 1.1-1.2 2.9-1.2 1.6 0 2.5 1 .9.9.9 2.7zm-1.3-1.1q0-1.1-.6-1.7-.5-.6-1.6-.6t-1.8.7q-.6.6-.7 1.6zm18.3 5h-1.3v-.9q-.2.2-.5.4t-.6.3q-.4.2-.8.3-.5.1-1.1.1-1.1 0-1.8-.7-.8-.7-.8-1.9 0-.9.4-1.5t1.1-.9q.8-.3 1.8-.4l2.3-.2v-.2q0-.5-.2-.8-.1-.3-.5-.5-.3-.1-.7-.2-.4-.1-.8-.1-.6 0-1.2.2-.7.1-1.4.4h-.1v-1.4q.4-.1 1.2-.2.8-.2 1.5-.2.9 0 1.5.2.6.1 1.1.5.5.3.7.8.2.6.2 1.3zm-1.3-2v-2.3q-.6 0-1.5.1t-1.4.2q-.5.2-.9.6-.4.3-.4.9 0 .7.4 1.1.5.3 1.3.3t1.4-.2q.6-.3 1.1-.7zm19.4 2h-1.3v-4.7q0-.5-.1-1t-.2-.8q-.2-.3-.6-.4-.3-.2-.9-.2-.5 0-1.1.3-.7.3-1.2.7v6.1h-1.4v-8.2h1.4v.9q.6-.5 1.3-.8.7-.3 1.4-.3 1.3 0 2 .8t.7 2.3zm9.5-3.9h-6q0 .7.2 1.3.3.5.7.9.3.3.9.5.5.2 1.1.2.9 0 1.7-.3.8-.4 1.2-.7h.1v1.5q-.7.3-1.4.5-.8.2-1.6.2-2 0-3.1-1.1-1.2-1.1-1.2-3.1 0-2.1 1.1-3.2 1.1-1.2 2.9-1.2 1.6 0 2.5 1 .9.9.9 2.7zm-1.3-1.1q0-1.1-.6-1.7-.5-.6-1.6-.6t-1.8.7q-.6.6-.7 1.6zm.4-7.3l-1.7 2.8h-1.7l-1.6-2.8h1.1l1.4 1.9 1.3-1.9zm10.5 12.3h-1.9l-3.2-3.6-.9.9v2.7h-1.4v-11.4h1.4v7.3l3.9-4.1h1.8l-3.8 3.8zm8 0h-1.3v-.9q-.6.6-1.3.8-.6.3-1.4.3-1.4 0-2.3-1.1-.9-1.1-.9-3.1 0-1.1.3-1.9.3-.8.8-1.4.5-.5 1.2-.8.7-.3 1.4-.3.6 0 1.1.1.5.2 1.1.4v-3.5h1.3zm-1.3-2v-4.7q-.6-.3-1-.4h-1q-1.2 0-1.8.8-.6.8-.6 2.2 0 1.5.5 2.3.5.7 1.6.7.5 0 1.1-.2.6-.3 1.2-.7zm11.1-6.2l-4.8 11.2h-1.4l1.5-3.4-3.3-7.8h1.5l2.5 6.1 2.6-6.1zm16.3 8.2h-6.6v-1l4.8-6h-4.7v-1.2h6.4v1l-4.8 6h4.9zm8.3 0h-1.3v-.9q-.2.2-.5.4t-.6.3q-.4.2-.8.3-.5.1-1.1.1-1.1 0-1.8-.7-.8-.7-.8-1.9 0-.9.4-1.5t1.1-.9q.8-.3 1.8-.4l2.3-.2v-.2q0-.5-.2-.8-.2-.3-.5-.5-.3-.1-.7-.2-.4-.1-.8-.1-.6 0-1.2.2-.7.1-1.4.4h-.1v-1.4q.4-.1 1.2-.2.7-.2 1.5-.2t1.5.2q.6.1 1.1.5.5.3.7.8.2.6.2 1.3zm-1.3-2v-2.3q-.7 0-1.5.1-.9.1-1.4.2-.6.2-.9.6-.4.3-.4.9 0 .7.4 1.1.5.3 1.3.3t1.4-.2q.6-.3 1.1-.7zm9.9-.4q0 1.2-1 1.9-.9.7-2.5.7-.9 0-1.7-.2-.7-.2-1.2-.5v-1.5q.7.5 1.5.7.8.3 1.5.3.9 0 1.4-.3.5-.3.5-.9 0-.5-.2-.7-.3-.3-1.1-.4-.3-.1-.8-.2l-.8-.2q-1.1-.3-1.6-.8-.4-.6-.4-1.4 0-.5.2-.9.2-.5.6-.8.5-.4 1.1-.6.6-.2 1.4-.2.7 0 1.5.2.7.2 1.2.4v1.5q-.6-.4-1.3-.6-.8-.3-1.5-.3-.8 0-1.3.3t-.5.8q0 .5.3.8.3.3 1 .4.4.1.9.2l.8.2q.9.2 1.4.7.6.5.6 1.4zm8.8-1.5h-6q0 .7.2 1.3.2.5.6.9.4.3.9.5t1.2.2q.8 0 1.6-.3.9-.4 1.2-.7h.1v1.5q-.7.3-1.4.5t-1.5.2q-2.1 0-3.2-1.1t-1.1-3.1q0-2.1 1-3.2 1.1-1.2 2.9-1.2 1.7 0 2.6 1 .9.9.9 2.7zm-1.4-1.1q0-1.1-.5-1.7-.5-.6-1.6-.6t-1.8.7q-.7.6-.7 1.6zm19.1-3.2l-3.3 8.2h-1.4l-3.3-8.2h1.5l2.6 6.5 2.5-6.5zm16.3 5.8q0 1.2-1 1.9-.9.7-2.5.7-.9 0-1.7-.2-.7-.2-1.2-.5v-1.5q.7.5 1.5.7.8.3 1.5.3.9 0 1.4-.3.5-.3.5-.9 0-.5-.2-.7-.3-.3-1.1-.4-.3-.1-.8-.2l-.8-.2q-1.1-.3-1.6-.8-.4-.6-.4-1.4 0-.5.2-.9.2-.5.6-.8.4-.4 1.1-.6.6-.2 1.4-.2.7 0 1.5.2.7.2 1.2.4v1.5q-.6-.4-1.3-.6-.8-.3-1.5-.3-.8 0-1.3.3t-.5.8q0 .5.3.8.3.3 1 .4.4.1.9.2l.8.2q.9.2 1.4.7.6.5.6 1.4zm8.9-1.7q0 2-1 3.2-1 1.1-2.8 1.1-1.7 0-2.7-1.1-1-1.2-1-3.2t1-3.1q1-1.2 2.7-1.2 1.8 0 2.8 1.2 1 1.1 1 3.1zm-1.4 0q0-1.6-.6-2.3-.7-.8-1.8-.8t-1.7.8q-.6.7-.6 2.3 0 1.6.6 2.3.6.8 1.7.8t1.8-.7q.6-.8.6-2.4zm10.7-.1q0 1.1-.2 1.9-.3.8-.8 1.4-.5.5-1.2.8-.6.3-1.3.3-.7 0-1.3-.1-.5-.2-1-.5l-.1.4h-1.3v-11.4h1.4v4.1q.6-.5 1.3-.8.6-.3 1.4-.3 1.5 0 2.3 1.1.8 1.1.8 3.1zm-1.4.1q0-1.5-.5-2.2-.4-.8-1.5-.8-.6 0-1.2.3-.7.2-1.2.6v4.7q.6.3 1 .4.4.1 1 .1 1.1 0 1.8-.8.6-.7.6-2.3zm10.4.2h-6q0 .7.2 1.3.3.5.7.9.3.3.9.5.5.2 1.1.2.9 0 1.7-.3.8-.4 1.2-.7h.1v1.5q-.7.3-1.4.5-.8.2-1.6.2-2 0-3.1-1.1-1.2-1.1-1.2-3.1 0-2.1 1.1-3.2 1.1-1.2 2.9-1.2 1.6 0 2.5 1 .9.9.9 2.7zm-1.3-1.1q0-1.1-.6-1.7-.5-.6-1.6-.6t-1.8.7q-.6.6-.7 1.6zm.4-7.3l-1.7 2.8h-1.7l-1.6-2.8h1.1l1.4 1.9 1.3-1.9zm18 12.3h-1.4v-.9q-.2.2-.5.4t-.6.3q-.3.2-.8.3-.4.1-1 .1-1.1 0-1.9-.7-.8-.7-.8-1.9 0-.9.4-1.5t1.2-.9q.7-.3 1.7-.4l2.3-.2v-.2q0-.5-.2-.8-.1-.3-.4-.5-.3-.1-.7-.2-.5-.1-.9-.1-.5 0-1.2.2-.7.1-1.4.4h-.1v-1.4q.4-.1 1.2-.2.8-.2 1.5-.2.9 0 1.5.2.7.1 1.1.5.5.3.7.8.3.6.3 1.3zm-1.4-2v-2.3q-.6 0-1.5.1-.8.1-1.3.2-.6.2-1 .6-.4.3-.4.9 0 .7.5 1.1.4.3 1.3.3.7 0 1.3-.2.6-.3 1.1-.7zm16.9 1.9q-.4.1-.9.2-.4.1-.8.1-1.3 0-1.9-.7-.7-.7-.7-2.2v-4.3h-.9v-1.2h.9v-2.3h1.4v2.3h2.9v1.2h-2.9v4.7q.1.4.3.7.1.3.4.4.3.2.9.2.3 0 .7-.1.3-.1.5-.2h.1zm8 .1h-1.4v-.9q-.2.2-.5.4t-.6.3q-.3.2-.8.3-.4.1-1 .1-1.1 0-1.9-.7-.8-.7-.8-1.9 0-.9.4-1.5t1.2-.9q.7-.3 1.8-.4l2.2-.2v-.2q0-.5-.2-.8-.1-.3-.4-.5-.3-.1-.7-.2-.4-.1-.9-.1t-1.2.2q-.7.1-1.4.4v-1.4q.4-.1 1.1-.2.8-.2 1.5-.2.9 0 1.5.2.7.1 1.1.5.5.3.7.8.3.6.3 1.3zm-1.4-2v-2.3q-.6 0-1.5.1-.8.1-1.3.2-.6.2-1 .6-.3.3-.3.9 0 .7.4 1.1.4.3 1.3.3.7 0 1.3-.2.6-.3 1.1-.7zm11.5 2h-1.8l-3.3-3.6-.9.9v2.7h-1.4v-11.4h1.4v7.3l4-4.1h1.7l-3.8 3.8zm17.2-4.2q0 1-.3 1.8-.3.9-.8 1.4-.5.6-1.1.9-.7.3-1.4.3-.6 0-1.2-.2-.5-.1-1-.4v3.4h-1.4v-11.2h1.4v.9q.5-.5 1.2-.8.7-.3 1.5-.3 1.5 0 2.3 1.1.8 1.1.8 3.1zm-1.4 0q0-1.4-.5-2.2-.5-.7-1.6-.7-.6 0-1.2.3-.6.2-1.1.6v4.7q.6.2 1 .3.4.1 1 .1 1.1 0 1.7-.8.7-.7.7-2.3zm10.5.1q0 2-1 3.2-1 1.1-2.7 1.1-1.8 0-2.8-1.1-1-1.2-1-3.2t1-3.1q1-1.2 2.8-1.2 1.7 0 2.7 1.2 1 1.1 1 3.1zm-1.4 0q0-1.6-.6-2.3-.6-.8-1.7-.8-1.2 0-1.8.8-.6.7-.6 2.3 0 1.6.6 2.3.6.8 1.8.8 1.1 0 1.7-.7.6-.8.6-2.4zm8.7-2.6h-.1q-.3-.1-.6-.1h-.7q-.6 0-1.2.3-.6.2-1.2.7v5.8h-1.3v-8.2h1.3v1.2q.9-.6 1.5-.9.6-.3 1.3-.3h.5q.2.1.5.1zm-.4-5.6l-1.7 2.8h-1.6l-1.7-2.8h1.1l1.4 1.9 1.4-1.9zm8 12.3h-1.3v-.9q-.2.2-.5.4t-.6.3q-.4.2-.8.3-.5.1-1.1.1-1.1 0-1.8-.7-.8-.7-.8-1.9 0-.9.4-1.5t1.1-.9q.8-.3 1.8-.4l2.3-.2v-.2q0-.5-.2-.8-.2-.3-.5-.5-.3-.1-.7-.2-.4-.1-.8-.1-.6 0-1.2.2-.7.1-1.4.4h-.1v-1.4q.4-.1 1.2-.2.7-.2 1.5-.2t1.5.2q.6.1 1.1.5.5.3.7.8.2.6.2 1.3zm-1.3-2v-2.3q-.7 0-1.5.1-.9.1-1.4.2-.6.2-.9.6-.4.3-.4.9 0 .7.4 1.1.5.3 1.3.3t1.4-.2q.6-.3 1.1-.7zm.5-10.3l-2 2.8h-1.1l1.3-2.8zm10.1 12.3h-1.3v-.9q-.6.6-1.3.8-.6.3-1.4.3-1.4 0-2.3-1.1-.9-1.1-.9-3.1 0-1.1.3-1.9.3-.8.8-1.4.5-.5 1.2-.8.7-.3 1.4-.3.6 0 1.1.1.5.2 1.1.4v-3.5h1.3zm-1.3-2v-4.7q-.6-.3-1-.4h-1q-1.1 0-1.8.8-.6.8-.6 2.2 0 1.5.5 2.3.5.7 1.6.7.5 0 1.1-.2.6-.3 1.2-.7zm-350 20.7h-1.4v-.8q-.6.5-1.2.8-.7.3-1.4.3-1.5 0-2.4-1.2-.8-1.1-.8-3.1 0-1 .3-1.8t.8-1.4q.5-.6 1.1-.9.7-.3 1.4-.3t1.2.2q.4.1 1 .4v-3.5h1.4zm-1.4-2v-4.7q-.6-.2-1-.3-.4-.1-1-.1-1.1 0-1.8.8-.6.8-.6 2.3 0 1.4.5 2.2.5.8 1.6.8.6 0 1.2-.3t1.1-.7zm11.1-2q0 2-1.1 3.1-1 1.2-2.7 1.2-1.7 0-2.8-1.2-1-1.1-1-3.1t1-3.2q1.1-1.2 2.8-1.2 1.7 0 2.7 1.2 1.1 1.2 1.1 3.2zm-1.5 0q0-1.6-.6-2.4-.6-.8-1.7-.8t-1.8.8q-.6.8-.6 2.4 0 1.5.7 2.3.6.8 1.7.8t1.7-.8q.6-.8.6-2.3zm11 4h-1.8l-3.3-3.5-.9.8v2.7h-1.3v-11.3h1.3v7.3l4-4.1h1.7l-3.8 3.7zm8.3-4q0 2-1 3.1-1.1 1.2-2.8 1.2-1.7 0-2.7-1.2-1.1-1.1-1.1-3.1t1.1-3.2q1-1.2 2.7-1.2 1.7 0 2.8 1.2 1 1.2 1 3.2zm-1.4 0q0-1.6-.6-2.4-.7-.8-1.8-.8t-1.7.8q-.6.8-.6 2.4 0 1.5.6 2.3.6.8 1.7.8t1.7-.8q.7-.8.7-2.3zm4.9 4h-1.3v-11.3h1.3zm9.1 0h-1.4v-.8q-.2.1-.5.3l-.6.4q-.3.1-.8.3-.4.1-1 .1-1.1 0-1.9-.8-.8-.7-.8-1.8 0-1 .4-1.5.4-.6 1.2-.9.7-.4 1.8-.5l2.2-.2v-.2q0-.4-.2-.7-.1-.4-.4-.5-.3-.2-.7-.3h-.9q-.5 0-1.2.1l-1.4.4h-.1v-1.4q.4-.1 1.2-.2.8-.1 1.5-.1.9 0 1.5.1.7.2 1.1.5.5.3.7.9.3.5.3 1.3zm-1.4-2v-2.2q-.6 0-1.5.1-.8 0-1.3.2-.6.1-1 .5t-.4 1q0 .7.5 1 .4.4 1.3.4.7 0 1.3-.3.6-.3 1.1-.7zm6.3 2h-1.8v-2h1.8z" style="line-height:125%;-inkscape-font-specification:'sans-serif, Normal';text-align:justify" font-size="15" letter-spacing="0" word-spacing="0" font-family="sans-serif"/>
  <path d="M10.338 10.163h446.809v150.004H10.337z" fill="none" stroke="#f90" stroke-width="16.032"/>
  <text x="232.562" y="18.994" style="line-height:125%;-inkscape-font-specification:'sans-serif, Normal';text-align:center" font-size="25" letter-spacing="0" word-spacing="0" font-family="sans-serif" text-anchor="middle">
    <tspan x="232.562" y="18.994">border</tspan>
  </text>
  <path d="M1.942 169.72v47.544" fill="none" stroke="#00f" stroke-width=".798"/>
  <text x="233.212" y="199.414" style="line-height:125%;-inkscape-font-specification:'sans-serif, Normal';text-align:center" font-size="25" letter-spacing="0" word-spacing="0" font-family="sans-serif" text-anchor="middle" fill="#00f">
    <tspan x="233.212" y="199.414">width</tspan>
  </text>
  <path d="M463.942 167.527v49.697" fill="none" stroke="#00f" stroke-width=".817"/>
  <path d="M1.942 211.384h461.4" fill="none" stroke="#00f" marker-start="url(#a)" marker-end="url(#b)"/>
  <text x="-87.444" y="544.212" transform="rotate(-90)" style="line-height:125%;-inkscape-font-specification:'sans-serif, Normal';text-align:center" font-size="25" letter-spacing="0" word-spacing="0" font-family="sans-serif" text-anchor="middle" fill="#00f">
    <tspan x="-87.444" y="544.212">height</tspan>
  </text>
  <path d="M470.442 2.701h92.9" fill="none" stroke="#00f" stroke-width="1.11"/>
  <path d="M556.142 165.666V5.95" fill="none" stroke="#00f" stroke-width=".902" marker-start="url(#c)" marker-end="url(#d)"/>
  <path d="M470.442 167.63h92.9" fill="none" stroke="#00f" stroke-width="1.11"/>
  <text x="232.562" y="168.994" style="line-height:125%;-inkscape-font-specification:'sans-serif, Normal';text-align:center" font-size="25" letter-spacing="0" word-spacing="0" font-family="sans-serif" text-anchor="middle">
    <tspan x="232.562" y="168.994">border</tspan>
  </text>
  <text x="-86.844" y="19.032" style="line-height:125%;-inkscape-font-specification:'sans-serif, Normal';text-align:center" transform="rotate(-90)" font-size="25" letter-spacing="0" word-spacing="0" font-family="sans-serif" text-anchor="middle">
    <tspan x="-86.844" y="19.032">border</tspan>
  </text>
  <text x="-86.844" y="465.032" style="line-height:125%;-inkscape-font-specification:'sans-serif, Normal';text-align:center" transform="rotate(-90)" font-size="25" letter-spacing="0" word-spacing="0" font-family="sans-serif" text-anchor="middle">
    <tspan x="-86.844" y="465.032">border</tspan>
  </text>
</svg>
